<svg id="LB_Black_logo" dataName="black-log" xmlns="http://www.w3.org/2000/svg" viewBox="0 0 85.04 48.19">
  <path d="M22.12,28.89l1-10.05-1.22.11-.56-2.45,2.12-.86c-.14-1.29-.07-2.58-.11-3.87-.07-1.88-.48-4.57-.22-6.37.16-1.1,1.56-2.36,1.98-3.41.15.01.18.15.23.26.27.61.64,2.19.8,2.9.72,3.15.65,6.3.63,9.51.46-.34,2.44-.49,2.53-1.01-.5-.6-.9-1.07-.99-1.87-.28-2.6,1.79-3.29,3.79-4.36,2.5-1.34,8.23-4.54,10.86-4.69,2.29-.13,3.88.54,4.04,2.87.12,1.8,0,4.56-.12,6.39-.16,2.4-1.5,4.87-3.1,6.7-.51.58-1.24,1.14-1.7,1.74-.53.68-.86,1.6-1.34,2.29-.79,1.11-4.46,4.41-5.79,4.67-.96.19-1.82,0-2.66-.42-2.37-1.2-1.42-2.59-2.41-4.32-.28-.48-1.35-1.13-1.35-1.76v-3.4l-2.03.76-1.01,9.41c-.15.58-1.16,1.25-1.78,1.25h-1.6ZM34.49,10.69c-.16,1.14-.95,1.89-1.48,2.81-1.28,2.2-1.91,7.05-.62,9.28.43.74,1.11,1.22,1.95,1.5.34,0,2.25-1.88,2.59-2.25,1.58-1.69,4.57-5.26,5.7-7.17,1.3-2.2.87-4.15.93-6.55.02-.74.26-1.58.07-2.36-.2-.27-1.25.01-1.56.11-2.53.79-5.45,3-8.05,3.9l-.29.24.76.49Z"/>
  <path d="M84.15,34.75c.09.65.76,1.48.87,2.07.03.19.05.23-.09.39-.22.25-1.25.89-1.6,1.1-2.43,1.5-5.27,2.26-7.77,3.64-1.95-.33-3.94-.31-5.84-.92-3.01-.97-6.84-3.69-8.66-6.15-3.58-4.82-3.04-10.36-.7-15.57-.03-.12-1.45-.87-1.72-1.15-.13-.14-1.24-1.7-1.31-1.85-.04-.08-.09-.13,0-.21l1.98-1.24c.41.02,1.79,1.19,2.29,1.4.08.04.14.09.22,0,.55-.86,1.13-1.72,1.77-2.52,1.36-1.7,3.25-3.75,4.81-5.29.59-.58,2.9-2.51,3.6-2.77.8-.3,3.19-.07,4.11.08,2.98.5,4.09,1.89,3.85,4.73-.41,4.82-3.97,6.4-7.51,8.91-.92.65-1.54,1.48-2.71,1.83-2.13.63-4.23-.29-6.26-.8-.72,1.75-1.77,3.76-1.88,5.66-.15,2.49,1.73,6.96,3.59,8.75,1.62,1.56,5.88,3.73,8.18,3.87s6.22-2.4,8.5-3.27c.74-.28,1.56-.4,2.29-.71ZM71.5,10.11c-2.7,2.13-4.5,3.7-6.24,6.71-.08.14-.42.63-.3.77,1.22.32,2.45.76,3.74.6,1.86-1.38,4.02-2.6,5.82-4.01,1.68-1.32,2.14-2.71,2.29-4.76-1.17-.41-2.41-.68-3.66-.73-.29.05-1.3,1.14-1.65,1.42Z"/>
  <path d="M60.04.2l-1.81,2.27c-1.71,1.3-4.02,1.08-6.08,1.08l-1.95,13.04v7.21c2.37.76,4.98.75,6.43,3.03,2.51,3.92-.59,10.81-3.25,14.14-.82,1.03-2.57,2.29-3.85,2.74-1.51.53-2.51-.38-2.65-1.78-.3-2.84.03-6.48,0-9.43,0-.27-.12-.53-.12-.83-.02-1.49.02-2.97.12-4.45l-1.87.31-.79-2.66c.02-.13,2.19-.69,2.52-.87.51-.29.15-.89.14-1.33-.25-7.37,1.3-14.7,2.49-21.94l.13-.21,10.54-.31ZM50.2,39.67c.42-.28.76-.65,1.04-1.06,1.55-2.27,2.96-5.04,3.05-7.79.05-1.48-.12-2.65-1.71-3.2-.22-.08-2.46-.7-2.49-.46l.11,12.5Z"/>
  <path d="M21.23,29.52c-.17.04-.18-.04-.28-.1-.42-.28-1.99-1.72-2.18-2.13-.86-1.85-1.36-4.51-2.07-6.52-.78-2.18-1.89-4.37-2.58-6.56-.44-1.42-.62-2.96-1.04-4.35-.36-1.18-1-2.45-1.52-3.58-1.3,1.76-2.74,3.45-3.95,5.27-1.53,3-.81,6.23-1.34,9.41-.36,2.15-.9,4.44-2,6.34l-2.2-.38c-.12-.08-.28-1.11-.29-1.32-.08-1.63,1.06-4.29,1.31-6.08.24-1.69.03-3.42.24-5.12.48-4.07,2.63-5.91,4.89-9.09.75-1.06,1.93-3.31,2.74-4.08.15-.14,1.84-1.21,1.95-1.22.15-.03.17.09.24.16.18.18,1.07,1.59,1.1,1.79.07.42-.57.75-.52,1.1.02.16.67.95.82,1.22,1.18,2.21,1.93,6.32,2.79,8.88.96,2.87,2.17,5.66,3.18,8.5.45,1.27,1.5,3.96,1.38,5.18-.08.82-.58,1.82-.67,2.67Z"/>
  <path d="M29.49,28.82c1.72,1.58,2.66,3.27,3.63,5.31,1.05,2.21,2.31,4.91,2.7,7.28.04.22.19,1.76.12,1.82-.43-.14-1.7.27-1.94,0-.44-.49-.8-3.06-1.08-3.9-.53-1.54-2.26-5.45-3.15-6.75-.12-.17-.25-.37-.46-.45-.3,4.23-.07,8.71-1.91,12.64l-1.85-.09c-.26-1.32.35-2.33.62-3.53.36-1.59.71-4,.81-5.62.17-2.74-.35-5.54.44-8.22.08-.08.54.3.65.38.44.31,1.02.77,1.41,1.13Z"/>
  <path d="M18.24,29.21l.3.63c.29.01.58-.03.87,0,.93.09,3.47.23,4.09.73.93.74,1.04,2.65.92,3.7-.16,1.48-.56,3.64-1.92,4.57-.84.57-4.96,1.69-5.96,1.56s-3.54-1.97-4.21-2.71c-1.27-1.41-.74-2.93.19-4.33,1.26-1.89,3.47-3.5,5.72-4.15ZM21.99,32.36c-.58.03-1.14-.19-1.7-.23-1.23-.08-2.35.16-3.56.29-.62.22-2.64,2.47-2.77,3.03-.27,1.16,2.09,2.22,2.93,2.73l4.15-1.16c.87-.42,1.29-3.16,1.19-4.01-.03-.24-.14-.44-.24-.66Z"/>
  <path d="M41.65,47.6c-1.38,1.36-3.05.09-4.16-.85.08-.11.21-.15.33-.21.51-.23,2.11-.58,2.38-.78.23-.17,1.15-1.6,1.29-1.92.48-1.1.38-2.12.55-3.25.24-1.59.53-3.18.76-4.78-2.9,2.12-5.83-1.79-7.05-3.95-.41-.73-.71-1.39-.07-2.12.19-.22.93-.82,1.21-.53.81,1.16,1.45,2.65,2.38,3.71.44.5,1.34,1.41,2.05,1.11.2-.08,2.31-1.65,2.48-1.84.3-.32.77-1.66.99-1.79l1.87.54c-.11,1.58-.98,2.93-1.39,4.42-1.12,4.07-.34,9.02-3.61,12.24Z"/>
  <path d="M12.72,27.53l.2,1.71c-.2.63-2.52,1.26-3.18,1.39-1.89.37-3.94.48-5.87.47.05,2.09,1.05,4.05,1.22,6.13.08.98-.05,2.04,0,3.04.02.44.37,2.01.15,2.26-.15.17-1.14.77-1.36.68-.06-.03-.7-.76-.76-.86-.42-.72-.24-3.6-.35-4.7-.26-2.59-1.37-4.91-1.35-7.52l-1.42-1.01,1.55-.15.4-.9,1.7.15.1.69c1.44-.18,2.91-.15,4.35-.33,1.6-.2,3.02-.81,4.6-1.03Z"/>
</svg>